<svg width="20" height="20" viewBox="0 0 20 20" fill="none" xmlns="http://www.w3.org/2000/svg">
<path d="M5.68355 18.0888L0.833313 19.1666L1.91114 14.3164C1.2233 13.0301 0.833313 11.5606 0.833313 9.99998C0.833313 4.93737 4.93737 0.833313 9.99998 0.833313C15.0625 0.833313 19.1666 4.93737 19.1666 9.99998C19.1666 15.0625 15.0625 19.1666 9.99998 19.1666C8.43935 19.1666 6.96985 18.7767 5.68355 18.0888ZM5.41665 9.99998C5.41665 12.5313 7.46868 14.5833 9.99998 14.5833C12.5313 14.5833 14.5833 12.5313 14.5833 9.99998H12.75C12.75 11.5188 11.5188 12.75 9.99998 12.75C8.48115 12.75 7.24998 11.5188 7.24998 9.99998H5.41665Z" fill="#4338CA"/>
</svg>
